<?xml version="1.0" encoding="UTF-8"?> 
<svg xmlns="http://www.w3.org/2000/svg" width="130.959" height="160.379" viewBox="0 0 130.959 160.379">
    <g transform="translate(-0.002 0.003)">
        <path d="M47.008,68.928H92.457a6.5,6.5,0,0,0,6.5-6.695A268.207,268.207,0,0,0,94.283,20.74,32.867,32.867,0,0,0,92.8,15.424a6.492,6.492,0,0,0-10.687-2.309L44.036,51.189a12.074,12.074,0,0,0-3.526,8.521V62.43a6.5,6.5,0,0,0,6.5,6.5Z" transform="translate(32.003 8.852)" fill="#152119"></path>
        <path d="M12.582,26.033A6.494,6.494,0,0,0,1.538,29.9a264.056,264.056,0,0,0,.072,57.514,6.5,6.5,0,0,0,6.462,5.818H52.106a6.5,6.5,0,0,0,6.5-6.5v-9.7a12.043,12.043,0,0,0-3.526-8.521Z" transform="translate(0 19.061)" fill="#152119"></path>
        <path d="M51.608,32.8,71.979,12.426a5.377,5.377,0,0,0-2.613-9.04A169.938,169.938,0,0,0,47.6.021,6.507,6.507,0,0,0,40.51,6.483V28.2A6.507,6.507,0,0,0,51.608,32.8Z" transform="translate(32.003 0)" fill="#152119"></path>
        <path d="M91.974,51.228H47.008a6.5,6.5,0,0,0-6.5,6.5v55.509a6.506,6.506,0,0,0,7.124,6.462,176.431,176.431,0,0,0,21.588-3.383A32.959,32.959,0,0,0,94.3,90.09a270.76,270.76,0,0,0,4.171-31.934,6.492,6.492,0,0,0-6.48-6.945Z" transform="translate(32.003 40.461)" fill="#152119"></path>
        <path d="M47.372.021A168.1,168.1,0,0,0,25.3,3.457,32.334,32.334,0,0,0,6.487,15.737a6.46,6.46,0,0,0,.68,8.4L43.38,60.345a6.487,6.487,0,0,0,11.08-4.6V6.5A6.526,6.526,0,0,0,47.354.021Z" transform="translate(4.144 0)" fill="#152119"></path>
        <path d="M49.872,70.5H6.768A3.914,3.914,0,0,0,2.92,75.136a32.777,32.777,0,0,0,24.774,26.242A157.819,157.819,0,0,0,49.3,104.654a6.526,6.526,0,0,0,7.071-6.48V77A6.5,6.5,0,0,0,49.872,70.5Z" transform="translate(2.252 55.701)" fill="#152119"></path>
    </g>
</svg> 